<mxfile host="65bd71144e">
    <diagram id="T9uuaTeBy4bPSP1g8a4x" name="Page-1">
        <mxGraphModel dx="397" dy="244" grid="1" gridSize="10" guides="1" tooltips="1" connect="1" arrows="1" fold="1" page="1" pageScale="1" pageWidth="827" pageHeight="1169" background="#FFFFFF" math="0" shadow="0">
            <root>
                <mxCell id="0"/>
                <mxCell id="1" parent="0"/>
                <mxCell id="314" value="&lt;b&gt;Activities&lt;/b&gt;" style="rounded=0;whiteSpace=wrap;html=1;strokeColor=none;fillColor=none;" vertex="1" parent="1">
                    <mxGeometry y="20" width="160" height="20" as="geometry"/>
                </mxCell>
                <mxCell id="315" value="Concurrent risk-and-opportunity-driven growth of system understanding, definition, and development" style="rounded=0;whiteSpace=wrap;html=1;align=left;" vertex="1" parent="1">
                    <mxGeometry y="40" width="160" height="100" as="geometry"/>
                </mxCell>
                <mxCell id="316" value="Evaluation of evidence of feasibility to proceed" style="rounded=0;whiteSpace=wrap;html=1;align=left;" vertex="1" parent="1">
                    <mxGeometry y="140" width="160" height="40" as="geometry"/>
                </mxCell>
                <mxCell id="317" value="Stakeholder review and commitment" style="rounded=0;whiteSpace=wrap;html=1;align=left;" vertex="1" parent="1">
                    <mxGeometry y="180" width="160" height="120" as="geometry"/>
                </mxCell>
                <mxCell id="322" value="Acceptable" style="edgeStyle=none;html=1;exitX=1;exitY=0;exitDx=0;exitDy=0;endArrow=block;endFill=1;startSize=3;endSize=3;fillColor=#fff2cc;strokeColor=#d6b656;" edge="1" parent="1" source="318">
                    <mxGeometry x="0.2265" relative="1" as="geometry">
                        <mxPoint x="274.14213562373106" y="225.85786437626894" as="sourcePoint"/>
                        <mxPoint x="280" y="200" as="targetPoint"/>
                        <mxPoint as="offset"/>
                    </mxGeometry>
                </mxCell>
                <mxCell id="330" style="edgeStyle=none;rounded=0;html=1;entryX=1;entryY=1;entryDx=0;entryDy=0;endArrow=none;endFill=0;startSize=3;endSize=3;exitX=0.5;exitY=0;exitDx=0;exitDy=0;" edge="1" parent="1" source="318" target="326">
                    <mxGeometry relative="1" as="geometry">
                        <mxPoint x="280" y="240" as="sourcePoint"/>
                        <mxPoint x="260" y="219.99999999999994" as="targetPoint"/>
                    </mxGeometry>
                </mxCell>
                <mxCell id="442" value="Negligible" style="edgeStyle=none;rounded=0;html=1;exitX=1;exitY=0.5;exitDx=0;exitDy=0;entryX=0;entryY=0.5;entryDx=0;entryDy=0;endArrow=block;endFill=1;startSize=3;endSize=3;fillColor=#d5e8d4;strokeColor=#82b366;" edge="1" parent="1" source="318" target="388">
                    <mxGeometry relative="1" as="geometry"/>
                </mxCell>
                <mxCell id="318" value="Risk?" style="ellipse;whiteSpace=wrap;html=1;fillColor=none;" vertex="1" parent="1">
                    <mxGeometry x="220" y="220" width="40" height="40" as="geometry"/>
                </mxCell>
                <mxCell id="320" value="High" style="endArrow=block;html=1;exitX=0;exitY=0;exitDx=0;exitDy=0;endFill=1;startSize=3;endSize=3;fillColor=#ffe6cc;strokeColor=#d79b00;" edge="1" parent="1" source="318">
                    <mxGeometry width="50" height="50" relative="1" as="geometry">
                        <mxPoint x="180" y="260" as="sourcePoint"/>
                        <mxPoint x="200" y="200" as="targetPoint"/>
                    </mxGeometry>
                </mxCell>
                <mxCell id="325" value="Initial scoping" style="rounded=0;whiteSpace=wrap;html=1;fillColor=none;align=left;" vertex="1" parent="1">
                    <mxGeometry x="160" y="40" width="80" height="100" as="geometry"/>
                </mxCell>
                <mxCell id="326" value="Feasibility rationales" style="rounded=0;whiteSpace=wrap;html=1;fillColor=none;align=left;" vertex="1" parent="1">
                    <mxGeometry x="160" y="140" width="80" height="40" as="geometry"/>
                </mxCell>
                <mxCell id="324" value="Unacceptable" style="edgeStyle=none;html=1;endArrow=block;endFill=1;startSize=3;endSize=3;exitX=0.5;exitY=1;exitDx=0;exitDy=0;fillColor=#f8cecc;strokeColor=#b85450;" edge="1" parent="1" source="318">
                    <mxGeometry relative="1" as="geometry">
                        <mxPoint x="260" y="260" as="sourcePoint"/>
                        <mxPoint x="240" y="320" as="targetPoint"/>
                    </mxGeometry>
                </mxCell>
                <mxCell id="344" value="Concept definition investment analysis" style="rounded=0;whiteSpace=wrap;html=1;fillColor=none;align=left;" vertex="1" parent="1">
                    <mxGeometry x="240" y="40" width="120" height="100" as="geometry"/>
                </mxCell>
                <mxCell id="345" value="..." style="rounded=0;whiteSpace=wrap;html=1;fillColor=none;align=left;" vertex="1" parent="1">
                    <mxGeometry x="240" y="140" width="120" height="40" as="geometry"/>
                </mxCell>
                <mxCell id="371" value="System architecting" style="rounded=0;whiteSpace=wrap;html=1;fillColor=none;align=left;" vertex="1" parent="1">
                    <mxGeometry x="360" y="40" width="100" height="100" as="geometry"/>
                </mxCell>
                <mxCell id="372" value="..." style="rounded=0;whiteSpace=wrap;html=1;fillColor=none;align=left;" vertex="1" parent="1">
                    <mxGeometry x="360" y="140" width="100" height="40" as="geometry"/>
                </mxCell>
                <mxCell id="379" value="Increment 1 development&lt;br&gt;&lt;br&gt;Increment 2 architecting rebaseline" style="rounded=0;whiteSpace=wrap;html=1;fillColor=none;align=left;" vertex="1" parent="1">
                    <mxGeometry x="460" y="40" width="140" height="100" as="geometry"/>
                </mxCell>
                <mxCell id="380" value="..." style="rounded=0;whiteSpace=wrap;html=1;fillColor=none;align=left;" vertex="1" parent="1">
                    <mxGeometry x="460" y="140" width="140" height="40" as="geometry"/>
                </mxCell>
                <mxCell id="387" value="" style="edgeStyle=none;html=1;exitX=1;exitY=0;exitDx=0;exitDy=0;endArrow=block;endFill=1;startSize=3;endSize=3;fillColor=#fff2cc;strokeColor=#d6b656;" edge="1" parent="1" source="388">
                    <mxGeometry x="0.2265" relative="1" as="geometry">
                        <mxPoint x="394.14213562373106" y="225.85786437626894" as="sourcePoint"/>
                        <mxPoint x="390" y="200" as="targetPoint"/>
                        <mxPoint as="offset"/>
                    </mxGeometry>
                </mxCell>
                <mxCell id="395" style="edgeStyle=none;rounded=0;html=1;exitX=0.5;exitY=0;exitDx=0;exitDy=0;entryX=0;entryY=1;entryDx=0;entryDy=0;endArrow=none;endFill=0;startSize=3;endSize=3;" edge="1" parent="1" source="388" target="372">
                    <mxGeometry relative="1" as="geometry"/>
                </mxCell>
                <mxCell id="443" style="edgeStyle=none;rounded=0;html=1;exitX=1;exitY=0.5;exitDx=0;exitDy=0;entryX=0;entryY=0.5;entryDx=0;entryDy=0;endArrow=block;endFill=1;startSize=3;endSize=3;fillColor=#d5e8d4;strokeColor=#82b366;" edge="1" parent="1" source="388" target="392">
                    <mxGeometry relative="1" as="geometry"/>
                </mxCell>
                <mxCell id="388" value="Risk?" style="ellipse;whiteSpace=wrap;html=1;fillColor=none;" vertex="1" parent="1">
                    <mxGeometry x="340" y="220" width="40" height="40" as="geometry"/>
                </mxCell>
                <mxCell id="389" value="" style="endArrow=block;html=1;exitX=0;exitY=0;exitDx=0;exitDy=0;endFill=1;startSize=3;endSize=3;fillColor=#ffe6cc;strokeColor=#d79b00;" edge="1" parent="1" source="388">
                    <mxGeometry width="50" height="50" relative="1" as="geometry">
                        <mxPoint x="300" y="260" as="sourcePoint"/>
                        <mxPoint x="330" y="200" as="targetPoint"/>
                    </mxGeometry>
                </mxCell>
                <mxCell id="390" value="Unacceptable" style="edgeStyle=none;html=1;endArrow=block;endFill=1;startSize=3;endSize=3;exitX=0.5;exitY=1;exitDx=0;exitDy=0;fillColor=#f8cecc;strokeColor=#b85450;" edge="1" parent="1" source="388">
                    <mxGeometry relative="1" as="geometry">
                        <mxPoint x="380" y="260" as="sourcePoint"/>
                        <mxPoint x="360" y="320" as="targetPoint"/>
                    </mxGeometry>
                </mxCell>
                <mxCell id="391" value="" style="edgeStyle=none;html=1;exitX=1;exitY=0;exitDx=0;exitDy=0;endArrow=block;endFill=1;startSize=3;endSize=3;fillColor=#fff2cc;strokeColor=#d6b656;" edge="1" parent="1">
                    <mxGeometry x="0.2265" relative="1" as="geometry">
                        <mxPoint x="474.14213562373106" y="225.8578643762687" as="sourcePoint"/>
                        <mxPoint x="490" y="200" as="targetPoint"/>
                        <mxPoint as="offset"/>
                    </mxGeometry>
                </mxCell>
                <mxCell id="396" style="edgeStyle=none;rounded=0;html=1;exitX=0.5;exitY=0;exitDx=0;exitDy=0;entryX=0;entryY=1;entryDx=0;entryDy=0;endArrow=none;endFill=0;startSize=3;endSize=3;" edge="1" parent="1" target="380">
                    <mxGeometry relative="1" as="geometry">
                        <mxPoint x="460" y="220" as="sourcePoint"/>
                    </mxGeometry>
                </mxCell>
                <mxCell id="444" style="edgeStyle=none;rounded=0;html=1;exitX=1;exitY=0.5;exitDx=0;exitDy=0;entryX=0;entryY=0.5;entryDx=0;entryDy=0;endArrow=block;endFill=1;startSize=3;endSize=3;fillColor=#d5e8d4;strokeColor=#82b366;" edge="1" parent="1" target="427">
                    <mxGeometry relative="1" as="geometry">
                        <mxPoint x="480" y="240" as="sourcePoint"/>
                    </mxGeometry>
                </mxCell>
                <mxCell id="392" value="Risk?" style="ellipse;whiteSpace=wrap;html=1;fillColor=none;" vertex="1" parent="1">
                    <mxGeometry x="440" y="220" width="40" height="40" as="geometry"/>
                </mxCell>
                <mxCell id="393" value="" style="endArrow=block;html=1;exitX=0;exitY=0;exitDx=0;exitDy=0;endFill=1;startSize=3;endSize=3;fillColor=#ffe6cc;strokeColor=#d79b00;" edge="1" parent="1" source="392">
                    <mxGeometry width="50" height="50" relative="1" as="geometry">
                        <mxPoint x="380" y="260" as="sourcePoint"/>
                        <mxPoint x="430" y="200" as="targetPoint"/>
                    </mxGeometry>
                </mxCell>
                <mxCell id="394" value="Unacceptable" style="edgeStyle=none;html=1;endArrow=block;endFill=1;startSize=3;endSize=3;exitX=0.5;exitY=1;exitDx=0;exitDy=0;fillColor=#f8cecc;strokeColor=#b85450;" edge="1" parent="1">
                    <mxGeometry relative="1" as="geometry">
                        <mxPoint x="460" y="260" as="sourcePoint"/>
                        <mxPoint x="460" y="320" as="targetPoint"/>
                    </mxGeometry>
                </mxCell>
                <mxCell id="404" value="" style="endArrow=none;html=1;rounded=0;startSize=3;endSize=3;exitX=1;exitY=1;exitDx=0;exitDy=0;" edge="1" parent="1" source="317">
                    <mxGeometry width="50" height="50" relative="1" as="geometry">
                        <mxPoint x="350" y="180" as="sourcePoint"/>
                        <mxPoint x="760" y="300" as="targetPoint"/>
                        <Array as="points">
                            <mxPoint x="460" y="300"/>
                        </Array>
                    </mxGeometry>
                </mxCell>
                <mxCell id="405" value="Increment 1 operations&lt;br&gt;&lt;br&gt;Increment 2 development&lt;br&gt;&lt;br&gt;Increment 3 architecting rebaseline" style="rounded=0;whiteSpace=wrap;html=1;fillColor=none;align=left;" vertex="1" parent="1">
                    <mxGeometry x="600" y="40" width="140" height="100" as="geometry"/>
                </mxCell>
                <mxCell id="406" value="..." style="rounded=0;whiteSpace=wrap;html=1;fillColor=none;align=left;" vertex="1" parent="1">
                    <mxGeometry x="600" y="140" width="140" height="40" as="geometry"/>
                </mxCell>
                <mxCell id="425" value="" style="edgeStyle=none;html=1;exitX=1;exitY=0;exitDx=0;exitDy=0;endArrow=block;endFill=1;startSize=3;endSize=3;fillColor=#fff2cc;strokeColor=#d6b656;" edge="1" parent="1" source="427">
                    <mxGeometry x="0.2265" relative="1" as="geometry">
                        <mxPoint x="634.1421356237311" y="225.85786437626894" as="sourcePoint"/>
                        <mxPoint x="630" y="200" as="targetPoint"/>
                        <mxPoint as="offset"/>
                    </mxGeometry>
                </mxCell>
                <mxCell id="426" style="edgeStyle=none;rounded=0;html=1;exitX=0.5;exitY=0;exitDx=0;exitDy=0;entryX=0;entryY=1;entryDx=0;entryDy=0;endArrow=none;endFill=0;startSize=3;endSize=3;" edge="1" parent="1" source="427">
                    <mxGeometry relative="1" as="geometry">
                        <mxPoint x="600" y="180" as="targetPoint"/>
                    </mxGeometry>
                </mxCell>
                <mxCell id="445" style="edgeStyle=none;rounded=0;html=1;exitX=1;exitY=0.5;exitDx=0;exitDy=0;entryX=0;entryY=0.5;entryDx=0;entryDy=0;endArrow=block;endFill=1;startSize=3;endSize=3;fillColor=#d5e8d4;strokeColor=#82b366;" edge="1" parent="1" source="427" target="432">
                    <mxGeometry relative="1" as="geometry"/>
                </mxCell>
                <mxCell id="427" value="Risk?" style="ellipse;whiteSpace=wrap;html=1;fillColor=none;" vertex="1" parent="1">
                    <mxGeometry x="580" y="220" width="40" height="40" as="geometry"/>
                </mxCell>
                <mxCell id="428" value="" style="endArrow=block;html=1;exitX=0;exitY=0;exitDx=0;exitDy=0;endFill=1;startSize=3;endSize=3;fillColor=#ffe6cc;strokeColor=#d79b00;" edge="1" parent="1" source="427">
                    <mxGeometry width="50" height="50" relative="1" as="geometry">
                        <mxPoint x="540" y="260" as="sourcePoint"/>
                        <mxPoint x="570" y="200" as="targetPoint"/>
                    </mxGeometry>
                </mxCell>
                <mxCell id="429" value="Unacceptable" style="edgeStyle=none;html=1;endArrow=block;endFill=1;startSize=3;endSize=3;exitX=0.5;exitY=1;exitDx=0;exitDy=0;fillColor=#f8cecc;strokeColor=#b85450;" edge="1" parent="1" source="427">
                    <mxGeometry relative="1" as="geometry">
                        <mxPoint x="620" y="260" as="sourcePoint"/>
                        <mxPoint x="600" y="320" as="targetPoint"/>
                    </mxGeometry>
                </mxCell>
                <mxCell id="430" value="" style="edgeStyle=none;html=1;exitX=1;exitY=0;exitDx=0;exitDy=0;endArrow=block;endFill=1;startSize=3;endSize=3;fillColor=#fff2cc;strokeColor=#d6b656;" edge="1" parent="1" source="432">
                    <mxGeometry x="0.2265" relative="1" as="geometry">
                        <mxPoint x="774.1421356237311" y="225.85786437626894" as="sourcePoint"/>
                        <mxPoint x="770" y="200" as="targetPoint"/>
                        <mxPoint as="offset"/>
                    </mxGeometry>
                </mxCell>
                <mxCell id="431" style="edgeStyle=none;rounded=0;html=1;exitX=0.5;exitY=0;exitDx=0;exitDy=0;entryX=0;entryY=1;entryDx=0;entryDy=0;endArrow=none;endFill=0;startSize=3;endSize=3;" edge="1" parent="1" source="432">
                    <mxGeometry relative="1" as="geometry">
                        <mxPoint x="740" y="180" as="targetPoint"/>
                    </mxGeometry>
                </mxCell>
                <mxCell id="446" style="edgeStyle=none;rounded=0;html=1;exitX=1;exitY=0.5;exitDx=0;exitDy=0;endArrow=block;endFill=1;startSize=3;endSize=3;" edge="1" parent="1" source="432">
                    <mxGeometry relative="1" as="geometry">
                        <mxPoint x="790" y="240.16666666666674" as="targetPoint"/>
                    </mxGeometry>
                </mxCell>
                <mxCell id="432" value="Risk?" style="ellipse;whiteSpace=wrap;html=1;fillColor=none;" vertex="1" parent="1">
                    <mxGeometry x="720" y="220" width="40" height="40" as="geometry"/>
                </mxCell>
                <mxCell id="433" value="" style="endArrow=block;html=1;exitX=0;exitY=0;exitDx=0;exitDy=0;endFill=1;startSize=3;endSize=3;fillColor=#ffe6cc;strokeColor=#d79b00;" edge="1" parent="1" source="432">
                    <mxGeometry width="50" height="50" relative="1" as="geometry">
                        <mxPoint x="680" y="260" as="sourcePoint"/>
                        <mxPoint x="710" y="200" as="targetPoint"/>
                    </mxGeometry>
                </mxCell>
                <mxCell id="434" value="Unacceptable" style="edgeStyle=none;html=1;endArrow=block;endFill=1;startSize=3;endSize=3;exitX=0.5;exitY=1;exitDx=0;exitDy=0;fillColor=#f8cecc;strokeColor=#b85450;" edge="1" parent="1" source="432">
                    <mxGeometry relative="1" as="geometry">
                        <mxPoint x="760" y="260" as="sourcePoint"/>
                        <mxPoint x="740" y="320" as="targetPoint"/>
                    </mxGeometry>
                </mxCell>
                <mxCell id="436" value="" style="endArrow=none;html=1;rounded=0;startSize=3;endSize=3;exitX=1;exitY=0;exitDx=0;exitDy=0;" edge="1" parent="1" source="405">
                    <mxGeometry width="50" height="50" relative="1" as="geometry">
                        <mxPoint x="410" y="210" as="sourcePoint"/>
                        <mxPoint x="780" y="40" as="targetPoint"/>
                    </mxGeometry>
                </mxCell>
                <mxCell id="437" value="&lt;b&gt;Eploration&lt;/b&gt;" style="rounded=0;whiteSpace=wrap;html=1;strokeColor=none;fillColor=none;" vertex="1" parent="1">
                    <mxGeometry x="160" y="20" width="80" height="20" as="geometry"/>
                </mxCell>
                <mxCell id="438" value="&lt;b&gt;Valuation&lt;/b&gt;" style="rounded=0;whiteSpace=wrap;html=1;strokeColor=none;fillColor=none;" vertex="1" parent="1">
                    <mxGeometry x="240" y="20" width="120" height="20" as="geometry"/>
                </mxCell>
                <mxCell id="439" value="&lt;b&gt;A_1&lt;/b&gt;" style="rounded=0;whiteSpace=wrap;html=1;strokeColor=none;fillColor=none;" vertex="1" parent="1">
                    <mxGeometry x="360" y="20" width="80" height="20" as="geometry"/>
                </mxCell>
                <mxCell id="440" value="&lt;b&gt;D_1,&amp;nbsp; A_2&lt;/b&gt;" style="rounded=0;whiteSpace=wrap;html=1;strokeColor=none;fillColor=none;" vertex="1" parent="1">
                    <mxGeometry x="460" y="20" width="140" height="20" as="geometry"/>
                </mxCell>
                <mxCell id="441" value="&lt;b&gt;O_1, D_2, A_3&lt;/b&gt;" style="rounded=0;whiteSpace=wrap;html=1;strokeColor=none;fillColor=none;" vertex="1" parent="1">
                    <mxGeometry x="600" y="20" width="140" height="20" as="geometry"/>
                </mxCell>
                <mxCell id="447" value="Adjust scope, priorities, or discontinue" style="rounded=0;whiteSpace=wrap;html=1;fillColor=none;" vertex="1" parent="1">
                    <mxGeometry x="200" y="320" width="560" height="30" as="geometry"/>
                </mxCell>
            </root>
        </mxGraphModel>
    </diagram>
</mxfile>